<svg width="16" height="16" viewBox="0 0 16 16" fill="none" xmlns="http://www.w3.org/2000/svg">
<g clip-path="url(#clip0_1063714_344)">
<path d="M15.996 16V15.9994H16V10.1314C16 7.26071 15.382 5.04938 12.026 5.04938C10.4126 5.04938 9.32997 5.93471 8.88797 6.77404H8.8413V5.31738H5.6593V15.9994H8.97264V10.71C8.97264 9.31738 9.23664 7.97071 10.9613 7.97071C12.6606 7.97071 12.686 9.56004 12.686 10.7994V16H15.996Z" fill="#F4F4FD"/>
<path d="M0.264038 5.31796H3.58137V16H0.264038V5.31796Z" fill="#F4F4FD"/>
<path d="M1.92133 0C0.860667 0 0 0.860667 0 1.92133C0 2.982 0.860667 3.86067 1.92133 3.86067C2.982 3.86067 3.84267 2.982 3.84267 1.92133C3.842 0.860667 2.98133 0 1.92133 0V0Z" fill="#F4F4FD"/>
</g>
<defs>
<clipPath id="clip0_1063714_344">
<rect width="16" height="16" fill="white"/>
</clipPath>
</defs>
</svg>
